<?xml version="1.0" standalone="no"?>
<!DOCTYPE svg PUBLIC "-//W3C//DTD SVG 20010904//EN"
 "http://www.w3.org/TR/2001/REC-SVG-20010904/DTD/svg10.dtd">
<svg version="1.0" xmlns="http://www.w3.org/2000/svg"
 width="32.000000pt" height="32.000000pt" viewBox="0 0 32.000000 32.000000"
 preserveAspectRatio="xMidYMid meet">

<g transform="translate(0.000000,32.000000) scale(0.100000,-0.100000)"
fill="#000000" stroke="none">
<path d="M115 271 c-3 -6 -12 -8 -18 -5 -7 4 -9 4 -5 -1 4 -4 3 -14 -3 -22
-18 -21 -1 -15 22 8 11 11 18 23 16 25 -3 3 -8 0 -12 -5z"/>
<path d="M130 250 c-20 -15 -23 -21 -12 -32 10 -10 15 -10 23 2 9 13 10 13 6
-2 -7 -21 12 -28 74 -28 60 0 65 17 16 54 -40 31 -73 33 -107 6z m35 0 c-3 -5
-11 -10 -16 -10 -6 0 -7 5 -4 10 3 6 11 10 16 10 6 0 7 -4 4 -10z"/>
<path d="M140 169 c0 -5 5 -7 10 -4 6 3 10 8 10 11 0 2 -4 4 -10 4 -5 0 -10
-5 -10 -11z"/>
<path d="M122 112 c-2 -7 3 -19 13 -26 17 -12 17 -13 -1 -11 -11 0 -25 4 -32
8 -8 6 -10 3 -6 -8 4 -8 17 -17 30 -20 13 -3 34 -7 47 -9 12 -3 31 2 41 9 10
8 24 12 30 8 6 -3 8 -2 3 2 -4 5 3 19 15 32 25 26 26 26 -66 27 -48 1 -70 -3
-74 -12z"/>
<path d="M85 110 c3 -5 10 -10 16 -10 5 0 9 5 9 10 0 6 -7 10 -16 10 -8 0 -12
-4 -9 -10z"/>
</g>
</svg>
